<svg width="48" height="60" viewBox="0 0 48 60" fill="none" xmlns="http://www.w3.org/2000/svg">
<g clip-path="url(#clip0_820_341)">
<path d="M24 0C10.7452 0 0 10.7452 0 24C0 37.2548 24 60 24 60C24 60 48 37.2548 48 24C48 10.7452 37.2548 0 24 0Z" fill="#EF4444"/>
<path d="M6 24C6 14.0589 14.0589 6 24 6V6C33.9411 6 42 14.0589 42 24V24C42 33.9411 33.9411 42 24 42V42C14.0589 42 6 33.9411 6 24V24Z" fill="#EE7676"/>
<path d="M14.168 23.4H21.98V24.684H14.168V23.4ZM12.992 27.012H23.06V28.32H12.992V27.012ZM17.216 23.988H18.8V27.432H17.216V23.988ZM14.168 19.212H21.896V20.484H15.752V23.952H14.168V19.212ZM26.5151 20.424H27.8111V20.82C27.8111 21.468 27.6991 22.08 27.4751 22.656C27.2511 23.224 26.9071 23.72 26.4431 24.144C25.9871 24.568 25.4031 24.884 24.6911 25.092L23.9471 23.844C24.5471 23.676 25.0351 23.436 25.4111 23.124C25.7951 22.812 26.0751 22.456 26.2511 22.056C26.4271 21.648 26.5151 21.236 26.5151 20.82V20.424ZM26.8151 20.424H28.1111V20.82C28.1111 21.204 28.1991 21.584 28.3751 21.96C28.5591 22.336 28.8391 22.676 29.2151 22.98C29.5911 23.276 30.0751 23.504 30.6671 23.664L29.9351 24.9C29.2311 24.7 28.6471 24.4 28.1831 24C27.7271 23.592 27.3831 23.116 27.1511 22.572C26.9271 22.02 26.8151 21.436 26.8151 20.82V20.424ZM24.3311 19.608H30.3071V20.856H24.3311V19.608ZM26.5151 18.42H28.1111V20.148H26.5151V18.42ZM31.1711 18.456H32.7671V25.248H31.1711V18.456ZM32.3351 21.18H34.2431V22.488H32.3351V21.18ZM25.3511 25.716H32.7671V29.568H31.1711V27H25.3511V25.716Z" fill="white"/>
</g>
<defs>
<clipPath id="clip0_820_341">
<rect width="48" height="60" fill="white"/>
</clipPath>
</defs>
</svg>
