<svg width="48" height="60" viewBox="0 0 48 60" fill="none" xmlns="http://www.w3.org/2000/svg">
<g clip-path="url(#clip0_820_341)">
<path d="M24 0C10.7452 0 0 10.7452 0 24C0 37.2548 24 60 24 60C24 60 48 37.2548 48 24C48 10.7452 37.2548 0 24 0Z" fill="#10B981"/>
<path d="M6 24C6 14.0589 14.0589 6 24 6V6C33.9411 6 42 14.0589 42 24V24C42 33.9411 33.9411 42 24 42V42C14.0589 42 6 33.9411 6 24V24Z" fill="#62CAA8"/>
<path d="M17.216 24.108H18.8V25.704H17.216V24.108ZM13.016 23.172H23.012V24.336H13.016V23.172ZM17.204 18.444H18.8V19.776H17.204V18.444ZM17.108 19.848H18.512V20.076C18.512 20.476 18.412 20.84 18.212 21.168C18.012 21.488 17.716 21.772 17.324 22.02C16.932 22.26 16.444 22.456 15.86 22.608C15.276 22.752 14.6 22.844 13.832 22.884L13.388 21.708C14.068 21.676 14.644 21.612 15.116 21.516C15.588 21.412 15.968 21.288 16.256 21.144C16.552 20.992 16.768 20.824 16.904 20.64C17.04 20.456 17.108 20.268 17.108 20.076V19.848ZM17.492 19.848H18.896V20.076C18.896 20.268 18.96 20.456 19.088 20.64C19.224 20.824 19.44 20.992 19.736 21.144C20.032 21.288 20.416 21.412 20.888 21.516C21.368 21.612 21.944 21.676 22.616 21.708L22.172 22.884C21.404 22.844 20.728 22.752 20.144 22.608C19.56 22.456 19.072 22.26 18.68 22.02C18.288 21.772 17.992 21.488 17.792 21.168C17.592 20.84 17.492 20.476 17.492 20.076V19.848ZM13.94 19.308H22.064V20.472H13.94V19.308ZM14.132 25.008H21.812V27.756H15.728V28.812H14.144V26.688H20.24V26.148H14.132V25.008ZM14.144 28.332H22.112V29.496H14.144V28.332ZM24.3431 18.936H25.9271V20.256H28.1111V18.936H29.6831V23.796H24.3431V18.936ZM25.9271 21.444V22.56H28.1111V21.444H25.9271ZM31.1711 18.456H32.7671V24.096H31.1711V18.456ZM32.1311 20.58H34.2311V21.888H32.1311V20.58ZM25.4351 24.516H32.7671V27.552H27.0311V28.86H25.4471V26.412H31.1951V25.74H25.4351V24.516ZM25.4471 28.248H33.0911V29.496H25.4471V28.248Z" fill="white"/>
</g>
<defs>
<clipPath id="clip0_820_341">
<rect width="48" height="60" fill="white"/>
</clipPath>
</defs>
</svg>
